<mxfile host="app.diagrams.net" modified="2022-03-07T02:57:51.551Z" agent="5.0 (Windows NT 10.0; Win64; x64) AppleWebKit/537.36 (KHTML, like Gecko) Chrome/96.0.4664.45 Safari/537.36" etag="orwPRqAL0QmExZvJEOMx" version="16.5.6" type="github">
  <diagram id="AB8aLDAtlRgpEcZsJVLx" name="第 1 页">
    <mxGraphModel dx="1422" dy="762" grid="1" gridSize="10" guides="1" tooltips="1" connect="1" arrows="1" fold="1" page="1" pageScale="1" pageWidth="827" pageHeight="1169" math="0" shadow="0">
      <root>
        <mxCell id="0" />
        <mxCell id="1" parent="0" />
        <mxCell id="2w30Hlw0sIKCpYPZPKEo-4" value="" style="edgeStyle=orthogonalEdgeStyle;rounded=0;orthogonalLoop=1;jettySize=auto;html=1;" edge="1" parent="1" source="2w30Hlw0sIKCpYPZPKEo-1" target="2w30Hlw0sIKCpYPZPKEo-3">
          <mxGeometry relative="1" as="geometry" />
        </mxCell>
        <mxCell id="2w30Hlw0sIKCpYPZPKEo-1" value="源码入口" style="ellipse;whiteSpace=wrap;html=1;" vertex="1" parent="1">
          <mxGeometry x="120" y="170" width="120" height="80" as="geometry" />
        </mxCell>
        <mxCell id="2w30Hlw0sIKCpYPZPKEo-8" value="" style="edgeStyle=orthogonalEdgeStyle;rounded=0;orthogonalLoop=1;jettySize=auto;html=1;" edge="1" parent="1" source="2w30Hlw0sIKCpYPZPKEo-3" target="2w30Hlw0sIKCpYPZPKEo-7">
          <mxGeometry relative="1" as="geometry" />
        </mxCell>
        <mxCell id="2w30Hlw0sIKCpYPZPKEo-3" value="spring.factories文件里的EnableAutoConfiguration对应的NacosDiscoveryAutoConfiguration" style="whiteSpace=wrap;html=1;" vertex="1" parent="1">
          <mxGeometry x="80" y="280" width="200" height="60" as="geometry" />
        </mxCell>
        <mxCell id="2w30Hlw0sIKCpYPZPKEo-10" value="" style="edgeStyle=orthogonalEdgeStyle;rounded=0;orthogonalLoop=1;jettySize=auto;html=1;entryX=0.5;entryY=0;entryDx=0;entryDy=0;" edge="1" parent="1" source="2w30Hlw0sIKCpYPZPKEo-7" target="2w30Hlw0sIKCpYPZPKEo-9">
          <mxGeometry relative="1" as="geometry">
            <mxPoint x="180" y="540" as="targetPoint" />
            <Array as="points">
              <mxPoint x="180" y="500" />
              <mxPoint x="180" y="500" />
            </Array>
          </mxGeometry>
        </mxCell>
        <mxCell id="2w30Hlw0sIKCpYPZPKEo-12" value="" style="edgeStyle=orthogonalEdgeStyle;rounded=0;orthogonalLoop=1;jettySize=auto;html=1;" edge="1" parent="1" source="2w30Hlw0sIKCpYPZPKEo-7" target="2w30Hlw0sIKCpYPZPKEo-11">
          <mxGeometry relative="1" as="geometry">
            <Array as="points">
              <mxPoint x="60" y="410" />
            </Array>
          </mxGeometry>
        </mxCell>
        <mxCell id="2w30Hlw0sIKCpYPZPKEo-15" value="@Bean" style="edgeLabel;html=1;align=center;verticalAlign=middle;resizable=0;points=[];" vertex="1" connectable="0" parent="2w30Hlw0sIKCpYPZPKEo-12">
          <mxGeometry x="-0.0776" y="2" relative="1" as="geometry">
            <mxPoint as="offset" />
          </mxGeometry>
        </mxCell>
        <mxCell id="2w30Hlw0sIKCpYPZPKEo-14" value="" style="edgeStyle=orthogonalEdgeStyle;rounded=0;orthogonalLoop=1;jettySize=auto;html=1;" edge="1" parent="1" source="2w30Hlw0sIKCpYPZPKEo-7" target="2w30Hlw0sIKCpYPZPKEo-13">
          <mxGeometry relative="1" as="geometry" />
        </mxCell>
        <mxCell id="2w30Hlw0sIKCpYPZPKEo-16" value="@Bean" style="edgeLabel;html=1;align=center;verticalAlign=middle;resizable=0;points=[];" vertex="1" connectable="0" parent="2w30Hlw0sIKCpYPZPKEo-14">
          <mxGeometry x="-0.1644" relative="1" as="geometry">
            <mxPoint as="offset" />
          </mxGeometry>
        </mxCell>
        <mxCell id="2w30Hlw0sIKCpYPZPKEo-7" value="NacosDiscoveryAutoConfiguration&lt;br&gt;自动配置类" style="whiteSpace=wrap;html=1;" vertex="1" parent="1">
          <mxGeometry x="75" y="390" width="210" height="40" as="geometry" />
        </mxCell>
        <mxCell id="2w30Hlw0sIKCpYPZPKEo-40" style="edgeStyle=orthogonalEdgeStyle;rounded=0;orthogonalLoop=1;jettySize=auto;html=1;fontSize=12;" edge="1" parent="1" source="2w30Hlw0sIKCpYPZPKEo-9" target="2w30Hlw0sIKCpYPZPKEo-35">
          <mxGeometry relative="1" as="geometry" />
        </mxCell>
        <mxCell id="2w30Hlw0sIKCpYPZPKEo-9" value="NacosServiceRegistry&lt;br&gt;用于向注册中心注册服务" style="whiteSpace=wrap;html=1;" vertex="1" parent="1">
          <mxGeometry x="110" y="567" width="140" height="43" as="geometry" />
        </mxCell>
        <mxCell id="2w30Hlw0sIKCpYPZPKEo-39" style="rounded=0;orthogonalLoop=1;jettySize=auto;html=1;entryX=0.5;entryY=1;entryDx=0;entryDy=0;fontSize=12;edgeStyle=orthogonalEdgeStyle;" edge="1" parent="1" source="2w30Hlw0sIKCpYPZPKEo-11" target="2w30Hlw0sIKCpYPZPKEo-35">
          <mxGeometry relative="1" as="geometry" />
        </mxCell>
        <mxCell id="2w30Hlw0sIKCpYPZPKEo-41" value="this.getRegistration就是NacosRegistation实例" style="edgeLabel;html=1;align=center;verticalAlign=middle;resizable=0;points=[];fontSize=12;" vertex="1" connectable="0" parent="2w30Hlw0sIKCpYPZPKEo-39">
          <mxGeometry x="-0.6026" y="-1" relative="1" as="geometry">
            <mxPoint x="65" y="-1" as="offset" />
          </mxGeometry>
        </mxCell>
        <mxCell id="2w30Hlw0sIKCpYPZPKEo-11" value="NacosRegistration&lt;br&gt;存储Nacos服务信息" style="whiteSpace=wrap;html=1;" vertex="1" parent="1">
          <mxGeometry y="640" width="140" height="30" as="geometry" />
        </mxCell>
        <mxCell id="2w30Hlw0sIKCpYPZPKEo-13" value="NacosAutoServiceRegistration&lt;br&gt;用于Nacos服务自动注册" style="whiteSpace=wrap;html=1;" vertex="1" parent="1">
          <mxGeometry x="200" y="480" width="190" height="40" as="geometry" />
        </mxCell>
        <mxCell id="2w30Hlw0sIKCpYPZPKEo-19" value="&lt;span&gt;ApplicationListener&lt;/span&gt;" style="rounded=0;whiteSpace=wrap;html=1;strokeColor=#000000;" vertex="1" parent="1">
          <mxGeometry x="425" y="130" width="130" height="30" as="geometry" />
        </mxCell>
        <mxCell id="2w30Hlw0sIKCpYPZPKEo-29" value="" style="edgeStyle=orthogonalEdgeStyle;rounded=0;orthogonalLoop=1;jettySize=auto;html=1;" edge="1" parent="1" source="2w30Hlw0sIKCpYPZPKEo-20" target="2w30Hlw0sIKCpYPZPKEo-28">
          <mxGeometry relative="1" as="geometry" />
        </mxCell>
        <mxCell id="2w30Hlw0sIKCpYPZPKEo-20" value="&lt;pre style=&quot;color: rgb(169 , 183 , 198) ; font-family: &amp;#34;consolas&amp;#34; ; font-size: 13.5pt&quot;&gt;&lt;span style=&quot;color: rgb(51 , 51 , 51) ; font-family: &amp;#34;open sans&amp;#34; , &amp;#34;clear sans&amp;#34; , &amp;#34;helvetica neue&amp;#34; , &amp;#34;helvetica&amp;#34; , &amp;#34;arial&amp;#34; , &amp;#34;segoe ui emoji&amp;#34; , sans-serif ; font-size: 16px ; background-color: rgb(255 , 255 , 255)&quot;&gt;AbstractAutoServiceRegistration&lt;/span&gt;&lt;br&gt;&lt;/pre&gt;" style="rounded=0;whiteSpace=wrap;html=1;strokeColor=#000000;" vertex="1" parent="1">
          <mxGeometry x="360" y="260" width="260" height="30" as="geometry" />
        </mxCell>
        <mxCell id="2w30Hlw0sIKCpYPZPKEo-26" value="实现" style="endArrow=block;endSize=16;endFill=0;html=1;rounded=0;entryX=0.5;entryY=1;entryDx=0;entryDy=0;exitX=0.5;exitY=0;exitDx=0;exitDy=0;" edge="1" parent="1" source="2w30Hlw0sIKCpYPZPKEo-20" target="2w30Hlw0sIKCpYPZPKEo-19">
          <mxGeometry y="-20" width="160" relative="1" as="geometry">
            <mxPoint x="440" y="260" as="sourcePoint" />
            <mxPoint x="600" y="260" as="targetPoint" />
            <mxPoint as="offset" />
          </mxGeometry>
        </mxCell>
        <mxCell id="2w30Hlw0sIKCpYPZPKEo-34" value="" style="edgeStyle=orthogonalEdgeStyle;rounded=0;orthogonalLoop=1;jettySize=auto;html=1;" edge="1" parent="1" source="2w30Hlw0sIKCpYPZPKEo-28" target="2w30Hlw0sIKCpYPZPKEo-33">
          <mxGeometry relative="1" as="geometry" />
        </mxCell>
        <mxCell id="2w30Hlw0sIKCpYPZPKEo-28" value="&lt;span style=&quot;color: rgb(51 , 51 , 51) ; font-family: &amp;#34;open sans&amp;#34; , &amp;#34;clear sans&amp;#34; , &amp;#34;helvetica neue&amp;#34; , &amp;#34;helvetica&amp;#34; , &amp;#34;arial&amp;#34; , &amp;#34;segoe ui emoji&amp;#34; , sans-serif ; background-color: rgb(255 , 255 , 255)&quot;&gt;&lt;font style=&quot;font-size: 12px&quot;&gt;onApplicationEvent&lt;/font&gt;&lt;/span&gt;" style="whiteSpace=wrap;html=1;strokeColor=#000000;rounded=0;" vertex="1" parent="1">
          <mxGeometry x="410" y="400" width="160" height="30" as="geometry" />
        </mxCell>
        <mxCell id="2w30Hlw0sIKCpYPZPKEo-30" value="继承" style="endArrow=block;endSize=16;endFill=0;html=1;rounded=0;exitX=0.5;exitY=0;exitDx=0;exitDy=0;entryX=0.25;entryY=1;entryDx=0;entryDy=0;edgeStyle=orthogonalEdgeStyle;" edge="1" parent="1" source="2w30Hlw0sIKCpYPZPKEo-13" target="2w30Hlw0sIKCpYPZPKEo-20">
          <mxGeometry width="160" relative="1" as="geometry">
            <mxPoint x="340" y="330" as="sourcePoint" />
            <mxPoint x="500" y="330" as="targetPoint" />
          </mxGeometry>
        </mxCell>
        <mxCell id="2w30Hlw0sIKCpYPZPKEo-32" value="实现ApplicationListener接口，在容器启动时会执行此方法" style="text;html=1;strokeColor=none;fillColor=none;align=center;verticalAlign=middle;whiteSpace=wrap;rounded=0;labelBackgroundColor=#FFFFFF;" vertex="1" parent="1">
          <mxGeometry x="430" y="320" width="175" height="30" as="geometry" />
        </mxCell>
        <mxCell id="2w30Hlw0sIKCpYPZPKEo-36" value="" style="edgeStyle=orthogonalEdgeStyle;rounded=0;orthogonalLoop=1;jettySize=auto;html=1;" edge="1" parent="1" source="2w30Hlw0sIKCpYPZPKEo-33" target="2w30Hlw0sIKCpYPZPKEo-35">
          <mxGeometry relative="1" as="geometry" />
        </mxCell>
        <mxCell id="2w30Hlw0sIKCpYPZPKEo-33" value="register" style="whiteSpace=wrap;html=1;strokeColor=#000000;rounded=0;" vertex="1" parent="1">
          <mxGeometry x="430" y="460" width="120" height="30" as="geometry" />
        </mxCell>
        <mxCell id="2w30Hlw0sIKCpYPZPKEo-35" value="serviceRegistry.register&lt;br&gt;（getRegistration)" style="whiteSpace=wrap;html=1;strokeColor=#000000;rounded=0;" vertex="1" parent="1">
          <mxGeometry x="415" y="602" width="155" height="28" as="geometry" />
        </mxCell>
      </root>
    </mxGraphModel>
  </diagram>
</mxfile>
